<svg width="512" height="512" viewBox="0 0 512 512" fill="none" xmlns="http://www.w3.org/2000/svg">
  <!-- Background circle with gradient -->
  <circle cx="256" cy="256" r="240" fill="url(#gradient)" stroke="#1E40AF" stroke-width="8"/>
  
  <!-- Vault door outline -->
  <circle cx="256" cy="256" r="180" fill="#F8FAFC" stroke="#1E40AF" stroke-width="6"/>
  
  <!-- Vault handle -->
  <circle cx="256" cy="256" r="80" fill="none" stroke="#1E40AF" stroke-width="8"/>
  
  <!-- Spokes -->
  <g stroke="#1E40AF" stroke-width="6" stroke-linecap="round">
    <line x1="256" y1="176" x2="256" y2="196"/>
    <line x1="336" y1="256" x2="316" y2="256"/>
    <line x1="256" y1="336" x2="256" y2="316"/>
    <line x1="176" y1="256" x2="196" y2="256"/>
    <line x1="313.14" y1="198.86" x2="298.84" y2="213.16"/>
    <line x1="313.14" y1="313.14" x2="298.84" y2="298.84"/>
    <line x1="198.86" y1="313.14" x2="213.16" y2="298.84"/>
    <line x1="198.86" y1="198.86" x2="213.16" y2="213.16"/>
  </g>
  
  <!-- Center handle -->
  <circle cx="256" cy="256" r="16" fill="#1E40AF"/>
  
  <!-- Security bolts -->
  <g fill="#1E40AF">
    <circle cx="200" cy="200" r="8"/>
    <circle cx="312" cy="200" r="8"/>
    <circle cx="312" cy="312" r="8"/>
    <circle cx="200" cy="312" r="8"/>
  </g>
  
  <!-- Gradient definition -->
  <defs>
    <linearGradient id="gradient" x1="0%" y1="0%" x2="100%" y2="100%">
      <stop offset="0%" style="stop-color:#3B82F6;stop-opacity:1" />
      <stop offset="100%" style="stop-color:#1E40AF;stop-opacity:1" />
    </linearGradient>
  </defs>
</svg> 